<svg xmlns="http://www.w3.org/2000/svg" width="1600" height="500" viewBox="0 0 1600 500" role="img" aria-labelledby="title desc"><title id="title">GMG-preconditioned convergence across four GPU benchmarks</title><desc id="desc">CSV means: G1 6.63, G2 7.13, G3 7.90, G4 8.43. Error bars show the observed min–max iterations, not uncertainty. Node count uses a logarithmic axis.</desc><defs><marker id="arrow" markerWidth="8" markerHeight="8" refX="6" refY="3" orient="auto"><path d="M0,0 L6,3 L0,6" fill="none" stroke="#173b8f" stroke-width="1.5"/></marker></defs><g font-family="Arial, Helvetica, sans-serif"><rect x="0" y="0" width="1600" height="500" rx="0" fill="#ffffff" /><rect x="0" y="0" width="1600" height="9" rx="0" fill="#173b8f" /><text x="48" y="47" font-size="15" fill="#52657d" font-weight="700" letter-spacing="2">IAC 2026 · ITU ASTRONAUTICAL ENGINEERING</text><text x="48" y="97" font-size="35" fill="#173b8f" font-weight="700" >Nearly grid-independent pressure convergence</text><text x="122" y="144" font-size="23" fill="#152642" font-weight="700" >BiCGSTAB iterations</text><line x1="122" y1="330.1666666666667" x2="913" y2="330.1666666666667" stroke="#d8e1ed" stroke-width="2" /><text x="105" y="337.1666666666667" font-size="19" fill="#52657d" font-weight="400" text-anchor="end">6</text><line x1="122" y1="264.5" x2="913" y2="264.5" stroke="#d8e1ed" stroke-width="2" /><text x="105" y="271.5" font-size="19" fill="#52657d" font-weight="400" text-anchor="end">8</text><line x1="122" y1="198.83333333333331" x2="913" y2="198.83333333333331" stroke="#d8e1ed" stroke-width="2" /><text x="105" y="205.83333333333331" font-size="19" fill="#52657d" font-weight="400" text-anchor="end">10</text><line x1="122" y1="363" x2="913" y2="363" stroke="#52657d" stroke-width="2" /><path d="M122.00,309.37 L385.67,292.96 L649.33,267.78 L913.00,250.27" fill="none" stroke="#173b8f" stroke-width="5" stroke-linejoin="round" stroke-linecap="round" /><line x1="122" y1="330.1666666666667" x2="122" y2="297.33333333333337" stroke="#f45c8b" stroke-width="4" /><line x1="113" y1="330.1666666666667" x2="131" y2="330.1666666666667" stroke="#f45c8b" stroke-width="3" /><line x1="113" y1="297.33333333333337" x2="131" y2="297.33333333333337" stroke="#f45c8b" stroke-width="3" /><circle cx="122" cy="309.3722222222222" r="8" fill="#173b8f" stroke="white" stroke-width="2"/><text x="136" y="295.3722222222222" font-size="24" fill="#173b8f" font-weight="700" text-anchor="start">6.63</text><text x="122" y="390" font-size="19" fill="#52657d" font-weight="400" text-anchor="middle">G1 · 0.27M</text><line x1="385.66666666666663" y1="330.1666666666667" x2="385.66666666666663" y2="264.5" stroke="#f45c8b" stroke-width="4" /><line x1="376.66666666666663" y1="330.1666666666667" x2="394.66666666666663" y2="330.1666666666667" stroke="#f45c8b" stroke-width="3" /><line x1="376.66666666666663" y1="264.5" x2="394.66666666666663" y2="264.5" stroke="#f45c8b" stroke-width="3" /><circle cx="385.66666666666663" cy="292.9555555555555" r="8" fill="#173b8f" stroke="white" stroke-width="2"/><text x="399.66666666666663" y="278.9555555555555" font-size="24" fill="#173b8f" font-weight="700" text-anchor="start">7.13</text><text x="385.66666666666663" y="390" font-size="19" fill="#52657d" font-weight="400" text-anchor="middle">G2 · 2.2M</text><line x1="649.3333333333333" y1="297.33333333333337" x2="649.3333333333333" y2="231.66666666666669" stroke="#f45c8b" stroke-width="4" /><line x1="640.3333333333333" y1="297.33333333333337" x2="658.3333333333333" y2="297.33333333333337" stroke="#f45c8b" stroke-width="3" /><line x1="640.3333333333333" y1="231.66666666666669" x2="658.3333333333333" y2="231.66666666666669" stroke="#f45c8b" stroke-width="3" /><circle cx="649.3333333333333" cy="267.7833333333333" r="8" fill="#173b8f" stroke="white" stroke-width="2"/><text x="663.3333333333333" y="253.7833333333333" font-size="24" fill="#173b8f" font-weight="700" text-anchor="start">7.90</text><text x="649.3333333333333" y="390" font-size="19" fill="#52657d" font-weight="400" text-anchor="middle">G3 · 17.2M</text><line x1="913" y1="264.5" x2="913" y2="198.83333333333331" stroke="#f45c8b" stroke-width="4" /><line x1="904" y1="264.5" x2="922" y2="264.5" stroke="#f45c8b" stroke-width="3" /><line x1="904" y1="198.83333333333331" x2="922" y2="198.83333333333331" stroke="#f45c8b" stroke-width="3" /><circle cx="913" cy="250.2722222222222" r="8" fill="#173b8f" stroke="white" stroke-width="2"/><text x="927" y="236.2722222222222" font-size="24" fill="#173b8f" font-weight="700" text-anchor="start">8.43</text><text x="913" y="390" font-size="19" fill="#52657d" font-weight="400" text-anchor="middle">G4 · 137.6M</text><text x="517.5" y="419" font-size="19" fill="#52657d" font-weight="400" text-anchor="middle">Grid nodes · logarithmic scale</text><rect x="1073" y="127" width="479" height="279" rx="18" fill="#173b8f" /><text x="1108" y="188" font-size="60" fill="#ffffff" font-weight="700" >512×</text><text x="1108" y="226" font-size="25" fill="#ffffff" font-weight="400" >more grid nodes</text><text x="1108" y="288" font-size="48" fill="#ffffff" font-weight="700" >+27%</text><text x="1108" y="326" font-size="25" fill="#ffffff" font-weight="400" >mean iteration growth</text><text x="1108" y="377" font-size="20" fill="#ffffff" font-weight="400" >Mean + observed min–max</text><line x1="48" y1="433" x2="1552" y2="433" stroke="#d8e1ed" stroke-width="2" /><text x="48" y="472" font-size="20" fill="#52657d" font-weight="400" >Matrix-free BiCGSTAB + GMG · single NVIDIA A100 80 GB PCIe · 30 sampled timesteps per case</text></g></svg>